STARTFONT 2.1
FONT -FontForge-microblok-Regular-R-Normal--10-100-75-75-M-40-FontSpecific-0
SIZE 10 75 75
FONTBOUNDINGBOX 6 10 -1 -3
COMMENT "Generated by fontforge, http://fontforge.sourceforge.net"
COMMENT "derekstrasters"
STARTPROPERTIES 39
FOUNDRY "FontForge"
FAMILY_NAME "microblok"
WEIGHT_NAME "Regular"
SLANT "R"
SETWIDTH_NAME "Normal"
ADD_STYLE_NAME ""
PIXEL_SIZE 10
POINT_SIZE 100
RESOLUTION_X 75
RESOLUTION_Y 75
SPACING "M"
AVERAGE_WIDTH 40
CHARSET_REGISTRY "FontSpecific"
CHARSET_ENCODING "0"
FONTNAME_REGISTRY ""
CHARSET_COLLECTIONS "ASCII ISOLatin1Encoding FontSpecific"
FONT_NAME "microblok"
FACE_NAME "microblok Regular"
FONT_VERSION "001"
FONT_ASCENT 8
FONT_DESCENT 2
UNDERLINE_POSITION -2
UNDERLINE_THICKNESS 1
X_HEIGHT 3
CAP_HEIGHT 3
RAW_ASCENT 800
RAW_DESCENT 200
NORM_SPACE 4
RELATIVE_WEIGHT 50
RELATIVE_SETWIDTH 50
SUPERSCRIPT_X -3
SUPERSCRIPT_Y 4
SUPERSCRIPT_SIZE 7
SUBSCRIPT_X 1
SUBSCRIPT_Y 1
SUBSCRIPT_SIZE 7
FIGURE_WIDTH 4
AVG_LOWERCASE_WIDTH 40
AVG_UPPERCASE_WIDTH 40
ENDPROPERTIES
CHARS 296
STARTCHAR .notdef
ENCODING -1
SWIDTH 400 0
DWIDTH 4 0
BBX 4 8 0 -2
BITMAP
F0
90
90
90
90
90
90
F0
ENDCHAR
STARTCHAR .null
ENCODING -1
SWIDTH 400 0
DWIDTH 4 0
BBX 1 1 0 0
BITMAP
00
ENDCHAR
STARTCHAR nonmarkingreturn
ENCODING -1
SWIDTH 400 0
DWIDTH 4 0
BBX 1 1 0 0
BITMAP
00
ENDCHAR
STARTCHAR space
ENCODING -1
SWIDTH 400 0
DWIDTH 4 0
BBX 1 1 0 0
BITMAP
00
ENDCHAR
STARTCHAR exclam
ENCODING -1
SWIDTH 400 0
DWIDTH 4 0
BBX 1 6 2 0
BITMAP
80
80
80
80
00
80
ENDCHAR
STARTCHAR quotedbl
ENCODING -1
SWIDTH 400 0
DWIDTH 4 0
BBX 3 2 1 4
BITMAP
A0
A0
ENDCHAR
STARTCHAR numbersign
ENCODING -1
SWIDTH 400 0
DWIDTH 4 0
BBX 4 5 0 0
BITMAP
50
F0
50
F0
50
ENDCHAR
STARTCHAR dollar
ENCODING -1
SWIDTH 400 0
DWIDTH 4 0
BBX 3 7 1 -1
BITMAP
40
E0
C0
E0
60
E0
40
ENDCHAR
STARTCHAR percent
ENCODING -1
SWIDTH 400 0
DWIDTH 4 0
BBX 4 6 0 -1
BITMAP
D0
D0
20
40
B0
B0
ENDCHAR
STARTCHAR ampersand
ENCODING -1
SWIDTH 400 0
DWIDTH 4 0
BBX 4 7 0 -1
BITMAP
40
A0
40
70
B0
B0
50
ENDCHAR
STARTCHAR quotesingle
ENCODING -1
SWIDTH 400 0
DWIDTH 4 0
BBX 1 2 2 4
BITMAP
80
80
ENDCHAR
STARTCHAR parenleft
ENCODING -1
SWIDTH 400 0
DWIDTH 4 0
BBX 3 8 1 -2
BITMAP
60
C0
80
80
80
80
C0
60
ENDCHAR
STARTCHAR parenright
ENCODING -1
SWIDTH 400 0
DWIDTH 4 0
BBX 3 8 1 -2
BITMAP
C0
60
20
20
20
20
60
C0
ENDCHAR
STARTCHAR asterisk
ENCODING -1
SWIDTH 400 0
DWIDTH 4 0
BBX 3 4 1 1
BITMAP
40
E0
40
A0
ENDCHAR
STARTCHAR plus
ENCODING -1
SWIDTH 400 0
DWIDTH 4 0
BBX 3 3 1 1
BITMAP
40
E0
40
ENDCHAR
STARTCHAR comma
ENCODING -1
SWIDTH 400 0
DWIDTH 4 0
BBX 2 2 1 -1
BITMAP
40
80
ENDCHAR
STARTCHAR hyphen
ENCODING -1
SWIDTH 400 0
DWIDTH 4 0
BBX 3 1 1 2
BITMAP
E0
ENDCHAR
STARTCHAR period
ENCODING -1
SWIDTH 400 0
DWIDTH 4 0
BBX 1 1 2 0
BITMAP
80
ENDCHAR
STARTCHAR slash
ENCODING -1
SWIDTH 400 0
DWIDTH 4 0
BBX 4 7 0 -1
BITMAP
10
30
20
60
40
C0
80
ENDCHAR
STARTCHAR zero
ENCODING -1
SWIDTH 400 0
DWIDTH 4 0
BBX 4 5 0 1
BITMAP
60
B0
F0
D0
60
ENDCHAR
STARTCHAR one
ENCODING -1
SWIDTH 400 0
DWIDTH 4 0
BBX 4 5 0 1
BITMAP
20
E0
20
20
F0
ENDCHAR
STARTCHAR two
ENCODING -1
SWIDTH 400 0
DWIDTH 4 0
BBX 4 5 0 1
BITMAP
60
B0
20
40
F0
ENDCHAR
STARTCHAR three
ENCODING -1
SWIDTH 400 0
DWIDTH 4 0
BBX 4 5 0 1
BITMAP
E0
30
E0
30
E0
ENDCHAR
STARTCHAR four
ENCODING -1
SWIDTH 400 0
DWIDTH 4 0
BBX 4 5 0 1
BITMAP
90
90
F0
10
10
ENDCHAR
STARTCHAR five
ENCODING -1
SWIDTH 400 0
DWIDTH 4 0
BBX 4 5 0 1
BITMAP
F0
80
F0
30
E0
ENDCHAR
STARTCHAR six
ENCODING -1
SWIDTH 400 0
DWIDTH 4 0
BBX 4 5 0 1
BITMAP
60
80
F0
90
60
ENDCHAR
STARTCHAR seven
ENCODING -1
SWIDTH 400 0
DWIDTH 4 0
BBX 4 5 0 1
BITMAP
F0
10
20
40
40
ENDCHAR
STARTCHAR eight
ENCODING -1
SWIDTH 400 0
DWIDTH 4 0
BBX 4 5 0 1
BITMAP
60
90
60
90
60
ENDCHAR
STARTCHAR nine
ENCODING -1
SWIDTH 400 0
DWIDTH 4 0
BBX 4 5 0 1
BITMAP
60
90
F0
10
60
ENDCHAR
STARTCHAR colon
ENCODING -1
SWIDTH 400 0
DWIDTH 4 0
BBX 1 4 2 0
BITMAP
80
00
00
80
ENDCHAR
STARTCHAR semicolon
ENCODING -1
SWIDTH 400 0
DWIDTH 4 0
BBX 2 5 1 -1
BITMAP
40
00
C0
40
80
ENDCHAR
STARTCHAR less
ENCODING -1
SWIDTH 400 0
DWIDTH 4 0
BBX 3 5 1 0
BITMAP
20
40
80
40
20
ENDCHAR
STARTCHAR equal
ENCODING -1
SWIDTH 400 0
DWIDTH 4 0
BBX 4 3 0 1
BITMAP
F0
00
F0
ENDCHAR
STARTCHAR greater
ENCODING -1
SWIDTH 400 0
DWIDTH 4 0
BBX 3 5 1 0
BITMAP
80
40
20
40
80
ENDCHAR
STARTCHAR question
ENCODING -1
SWIDTH 400 0
DWIDTH 4 0
BBX 3 6 1 0
BITMAP
40
A0
20
40
00
40
ENDCHAR
STARTCHAR at
ENCODING -1
SWIDTH 400 0
DWIDTH 4 0
BBX 4 7 0 -1
BITMAP
60
90
B0
D0
B0
80
70
ENDCHAR
STARTCHAR A
ENCODING -1
SWIDTH 400 0
DWIDTH 4 0
BBX 4 6 0 0
BITMAP
70
90
F0
90
90
90
ENDCHAR
STARTCHAR B
ENCODING -1
SWIDTH 400 0
DWIDTH 4 0
BBX 4 6 0 0
BITMAP
60
A0
F0
90
90
E0
ENDCHAR
STARTCHAR C
ENCODING -1
SWIDTH 400 0
DWIDTH 4 0
BBX 4 6 0 0
BITMAP
70
90
80
80
90
E0
ENDCHAR
STARTCHAR D
ENCODING -1
SWIDTH 400 0
DWIDTH 4 0
BBX 4 6 0 0
BITMAP
E0
90
90
90
A0
C0
ENDCHAR
STARTCHAR E
ENCODING -1
SWIDTH 400 0
DWIDTH 4 0
BBX 4 6 0 0
BITMAP
70
80
E0
80
90
F0
ENDCHAR
STARTCHAR F
ENCODING -1
SWIDTH 400 0
DWIDTH 4 0
BBX 4 6 0 0
BITMAP
70
80
80
E0
80
80
ENDCHAR
STARTCHAR G
ENCODING -1
SWIDTH 400 0
DWIDTH 4 0
BBX 4 6 0 0
BITMAP
70
80
80
B0
90
E0
ENDCHAR
STARTCHAR H
ENCODING -1
SWIDTH 400 0
DWIDTH 4 0
BBX 4 6 0 0
BITMAP
90
90
F0
90
90
B0
ENDCHAR
STARTCHAR I
ENCODING -1
SWIDTH 400 0
DWIDTH 4 0
BBX 4 6 0 0
BITMAP
F0
20
20
20
20
F0
ENDCHAR
STARTCHAR J
ENCODING -1
SWIDTH 400 0
DWIDTH 4 0
BBX 4 6 0 0
BITMAP
F0
10
10
90
90
E0
ENDCHAR
STARTCHAR K
ENCODING -1
SWIDTH 400 0
DWIDTH 4 0
BBX 4 6 0 0
BITMAP
90
90
E0
A0
90
90
ENDCHAR
STARTCHAR L
ENCODING -1
SWIDTH 400 0
DWIDTH 4 0
BBX 3 6 1 0
BITMAP
80
80
80
80
80
E0
ENDCHAR
STARTCHAR M
ENCODING -1
SWIDTH 400 0
DWIDTH 4 0
BBX 4 6 0 0
BITMAP
50
F0
F0
90
90
90
ENDCHAR
STARTCHAR N
ENCODING -1
SWIDTH 400 0
DWIDTH 4 0
BBX 4 6 0 0
BITMAP
50
D0
F0
B0
90
90
ENDCHAR
STARTCHAR O
ENCODING -1
SWIDTH 400 0
DWIDTH 4 0
BBX 4 6 0 0
BITMAP
70
90
90
90
90
E0
ENDCHAR
STARTCHAR P
ENCODING -1
SWIDTH 400 0
DWIDTH 4 0
BBX 4 6 0 0
BITMAP
70
90
90
E0
80
80
ENDCHAR
STARTCHAR Q
ENCODING -1
SWIDTH 400 0
DWIDTH 4 0
BBX 4 7 0 -1
BITMAP
70
90
90
90
A0
E0
30
ENDCHAR
STARTCHAR R
ENCODING -1
SWIDTH 400 0
DWIDTH 4 0
BBX 4 6 0 0
BITMAP
70
90
90
E0
A0
90
ENDCHAR
STARTCHAR S
ENCODING -1
SWIDTH 400 0
DWIDTH 4 0
BBX 4 6 0 0
BITMAP
70
80
C0
30
10
E0
ENDCHAR
STARTCHAR T
ENCODING -1
SWIDTH 400 0
DWIDTH 4 0
BBX 4 6 0 0
BITMAP
F0
A0
20
20
20
20
ENDCHAR
STARTCHAR U
ENCODING -1
SWIDTH 400 0
DWIDTH 4 0
BBX 4 6 0 0
BITMAP
90
90
90
90
90
E0
ENDCHAR
STARTCHAR V
ENCODING -1
SWIDTH 400 0
DWIDTH 4 0
BBX 4 6 0 0
BITMAP
90
90
90
A0
C0
80
ENDCHAR
STARTCHAR W
ENCODING -1
SWIDTH 400 0
DWIDTH 4 0
BBX 4 6 0 0
BITMAP
90
90
90
F0
F0
A0
ENDCHAR
STARTCHAR X
ENCODING -1
SWIDTH 400 0
DWIDTH 4 0
BBX 4 6 0 0
BITMAP
D0
D0
60
60
B0
B0
ENDCHAR
STARTCHAR Y
ENCODING -1
SWIDTH 400 0
DWIDTH 4 0
BBX 4 6 0 0
BITMAP
90
90
E0
40
40
40
ENDCHAR
STARTCHAR Z
ENCODING -1
SWIDTH 400 0
DWIDTH 4 0
BBX 4 6 0 0
BITMAP
F0
90
20
40
80
F0
ENDCHAR
STARTCHAR bracketleft
ENCODING -1
SWIDTH 400 0
DWIDTH 4 0
BBX 3 8 1 -2
BITMAP
E0
80
80
80
80
80
80
E0
ENDCHAR
STARTCHAR backslash
ENCODING -1
SWIDTH 400 0
DWIDTH 4 0
BBX 4 7 0 -1
BITMAP
80
C0
40
60
20
30
10
ENDCHAR
STARTCHAR bracketright
ENCODING -1
SWIDTH 400 0
DWIDTH 4 0
BBX 3 8 1 -2
BITMAP
E0
20
20
20
20
20
20
E0
ENDCHAR
STARTCHAR asciicircum
ENCODING -1
SWIDTH 400 0
DWIDTH 4 0
BBX 4 3 0 3
BITMAP
60
60
90
ENDCHAR
STARTCHAR underscore
ENCODING -1
SWIDTH 400 0
DWIDTH 4 0
BBX 5 1 0 -1
BITMAP
F8
ENDCHAR
STARTCHAR grave
ENCODING -1
SWIDTH 400 0
DWIDTH 4 0
BBX 2 2 1 4
BITMAP
80
40
ENDCHAR
STARTCHAR a
ENCODING -1
SWIDTH 400 0
DWIDTH 4 0
BBX 4 4 0 0
BITMAP
70
90
B0
D0
ENDCHAR
STARTCHAR b
ENCODING -1
SWIDTH 400 0
DWIDTH 4 0
BBX 4 6 0 0
BITMAP
80
80
B0
D0
90
E0
ENDCHAR
STARTCHAR c
ENCODING -1
SWIDTH 400 0
DWIDTH 4 0
BBX 4 4 0 0
BITMAP
70
80
80
F0
ENDCHAR
STARTCHAR d
ENCODING -1
SWIDTH 400 0
DWIDTH 4 0
BBX 4 6 0 0
BITMAP
10
10
70
90
B0
D0
ENDCHAR
STARTCHAR e
ENCODING -1
SWIDTH 400 0
DWIDTH 4 0
BBX 4 4 0 0
BITMAP
70
A0
C0
70
ENDCHAR
STARTCHAR f
ENCODING -1
SWIDTH 400 0
DWIDTH 4 0
BBX 4 6 0 0
BITMAP
30
50
40
F0
40
C0
ENDCHAR
STARTCHAR g
ENCODING -1
SWIDTH 400 0
DWIDTH 4 0
BBX 4 6 0 -2
BITMAP
70
90
B0
50
90
60
ENDCHAR
STARTCHAR h
ENCODING -1
SWIDTH 400 0
DWIDTH 4 0
BBX 4 6 0 0
BITMAP
80
80
B0
D0
90
90
ENDCHAR
STARTCHAR i
ENCODING -1
SWIDTH 400 0
DWIDTH 4 0
BBX 3 6 1 0
BITMAP
40
00
40
C0
40
60
ENDCHAR
STARTCHAR j
ENCODING -1
SWIDTH 400 0
DWIDTH 4 0
BBX 4 7 0 -1
BITMAP
10
00
30
10
10
90
E0
ENDCHAR
STARTCHAR k
ENCODING -1
SWIDTH 400 0
DWIDTH 4 0
BBX 4 6 0 0
BITMAP
80
80
B0
E0
A0
B0
ENDCHAR
STARTCHAR l
ENCODING -1
SWIDTH 400 0
DWIDTH 4 0
BBX 3 6 1 0
BITMAP
C0
40
40
40
40
60
ENDCHAR
STARTCHAR m
ENCODING -1
SWIDTH 400 0
DWIDTH 4 0
BBX 4 4 0 0
BITMAP
70
F0
90
90
ENDCHAR
STARTCHAR n
ENCODING -1
SWIDTH 400 0
DWIDTH 4 0
BBX 4 4 0 0
BITMAP
B0
D0
90
90
ENDCHAR
STARTCHAR o
ENCODING -1
SWIDTH 400 0
DWIDTH 4 0
BBX 4 4 0 0
BITMAP
70
90
90
E0
ENDCHAR
STARTCHAR p
ENCODING -1
SWIDTH 400 0
DWIDTH 4 0
BBX 4 6 0 -2
BITMAP
B0
D0
90
E0
80
80
ENDCHAR
STARTCHAR q
ENCODING -1
SWIDTH 400 0
DWIDTH 4 0
BBX 4 6 0 -2
BITMAP
70
90
B0
E0
20
30
ENDCHAR
STARTCHAR r
ENCODING -1
SWIDTH 400 0
DWIDTH 4 0
BBX 4 4 0 0
BITMAP
B0
D0
80
80
ENDCHAR
STARTCHAR s
ENCODING -1
SWIDTH 400 0
DWIDTH 4 0
BBX 4 4 0 0
BITMAP
70
C0
30
E0
ENDCHAR
STARTCHAR t
ENCODING -1
SWIDTH 400 0
DWIDTH 4 0
BBX 4 6 0 0
BITMAP
40
40
F0
40
40
60
ENDCHAR
STARTCHAR u
ENCODING -1
SWIDTH 400 0
DWIDTH 4 0
BBX 4 4 0 0
BITMAP
90
90
B0
D0
ENDCHAR
STARTCHAR v
ENCODING -1
SWIDTH 400 0
DWIDTH 4 0
BBX 4 4 0 0
BITMAP
90
A0
C0
80
ENDCHAR
STARTCHAR w
ENCODING -1
SWIDTH 400 0
DWIDTH 4 0
BBX 4 4 0 0
BITMAP
90
90
F0
E0
ENDCHAR
STARTCHAR x
ENCODING -1
SWIDTH 400 0
DWIDTH 4 0
BBX 4 4 0 0
BITMAP
D0
60
60
B0
ENDCHAR
STARTCHAR y
ENCODING -1
SWIDTH 400 0
DWIDTH 4 0
BBX 4 6 0 -2
BITMAP
90
90
B0
50
90
60
ENDCHAR
STARTCHAR z
ENCODING -1
SWIDTH 400 0
DWIDTH 4 0
BBX 4 4 0 0
BITMAP
F0
20
40
F0
ENDCHAR
STARTCHAR braceleft
ENCODING -1
SWIDTH 400 0
DWIDTH 4 0
BBX 4 8 0 -2
BITMAP
30
40
40
C0
C0
40
40
30
ENDCHAR
STARTCHAR bar
ENCODING -1
SWIDTH 400 0
DWIDTH 4 0
BBX 1 8 2 -2
BITMAP
80
80
80
80
80
80
80
80
ENDCHAR
STARTCHAR braceright
ENCODING -1
SWIDTH 400 0
DWIDTH 4 0
BBX 4 8 0 -2
BITMAP
C0
20
20
30
30
20
20
C0
ENDCHAR
STARTCHAR asciitilde
ENCODING -1
SWIDTH 400 0
DWIDTH 4 0
BBX 4 2 0 3
BITMAP
D0
B0
ENDCHAR
STARTCHAR uni00A0
ENCODING -1
SWIDTH 400 0
DWIDTH 4 0
BBX 1 1 0 0
BITMAP
00
ENDCHAR
STARTCHAR exclamdown
ENCODING -1
SWIDTH 400 0
DWIDTH 4 0
BBX 1 7 2 -2
BITMAP
80
00
80
80
80
80
80
ENDCHAR
STARTCHAR cent
ENCODING -1
SWIDTH 400 0
DWIDTH 4 0
BBX 4 7 0 -1
BITMAP
20
70
A0
A0
E0
70
40
ENDCHAR
STARTCHAR sterling
ENCODING -1
SWIDTH 400 0
DWIDTH 4 0
BBX 4 6 0 0
BITMAP
20
50
40
E0
40
F0
ENDCHAR
STARTCHAR currency
ENCODING -1
SWIDTH 400 0
DWIDTH 4 0
BBX 5 5 0 -1
BITMAP
88
70
50
70
88
ENDCHAR
STARTCHAR yen
ENCODING -1
SWIDTH 400 0
DWIDTH 4 0
BBX 3 6 1 0
BITMAP
A0
A0
40
E0
40
40
ENDCHAR
STARTCHAR brokenbar
ENCODING -1
SWIDTH 400 0
DWIDTH 4 0
BBX 1 7 2 -1
BITMAP
80
80
80
00
80
80
80
ENDCHAR
STARTCHAR section
ENCODING -1
SWIDTH 400 0
DWIDTH 4 0
BBX 4 7 0 -1
BITMAP
70
80
E0
90
70
10
E0
ENDCHAR
STARTCHAR dieresis
ENCODING -1
SWIDTH 400 0
DWIDTH 4 0
BBX 4 1 0 6
BITMAP
90
ENDCHAR
STARTCHAR copyright
ENCODING -1
SWIDTH 400 0
DWIDTH 4 0
BBX 6 7 -1 -1
BITMAP
38
44
B4
A4
B4
88
70
ENDCHAR
STARTCHAR ordfeminine
ENCODING -1
SWIDTH 400 0
DWIDTH 4 0
BBX 3 5 1 1
BITMAP
60
A0
60
A0
E0
ENDCHAR
STARTCHAR guillemotleft
ENCODING -1
SWIDTH 400 0
DWIDTH 4 0
BBX 5 5 0 0
BITMAP
20
48
90
48
20
ENDCHAR
STARTCHAR logicalnot
ENCODING -1
SWIDTH 400 0
DWIDTH 4 0
BBX 4 2 0 0
BITMAP
F0
10
ENDCHAR
STARTCHAR uni00AD
ENCODING -1
SWIDTH 400 0
DWIDTH 4 0
BBX 3 1 1 2
BITMAP
E0
ENDCHAR
STARTCHAR registered
ENCODING -1
SWIDTH 400 0
DWIDTH 4 0
BBX 6 7 -1 -1
BITMAP
38
44
AC
B4
A4
A8
70
ENDCHAR
STARTCHAR macron
ENCODING -1
SWIDTH 400 0
DWIDTH 4 0
BBX 5 1 0 6
BITMAP
F8
ENDCHAR
STARTCHAR degree
ENCODING -1
SWIDTH 400 0
DWIDTH 4 0
BBX 4 4 0 2
BITMAP
60
90
90
60
ENDCHAR
STARTCHAR plusminus
ENCODING -1
SWIDTH 400 0
DWIDTH 4 0
BBX 3 5 0 0
BITMAP
40
E0
40
00
E0
ENDCHAR
STARTCHAR uni00B2
ENCODING -1
SWIDTH 400 0
DWIDTH 4 0
BBX 3 4 0 2
BITMAP
C0
20
40
E0
ENDCHAR
STARTCHAR uni00B3
ENCODING -1
SWIDTH 400 0
DWIDTH 4 0
BBX 3 4 0 2
BITMAP
E0
20
60
E0
ENDCHAR
STARTCHAR acute
ENCODING -1
SWIDTH 400 0
DWIDTH 4 0
BBX 2 2 2 4
BITMAP
40
80
ENDCHAR
STARTCHAR uni00B5
ENCODING -1
SWIDTH 400 0
DWIDTH 4 0
BBX 5 6 0 -2
BITMAP
D0
50
50
78
40
40
ENDCHAR
STARTCHAR paragraph
ENCODING -1
SWIDTH 400 0
DWIDTH 4 0
BBX 4 6 0 0
BITMAP
70
D0
D0
50
50
50
ENDCHAR
STARTCHAR periodcentered
ENCODING -1
SWIDTH 400 0
DWIDTH 4 0
BBX 1 1 2 2
BITMAP
80
ENDCHAR
STARTCHAR cedilla
ENCODING -1
SWIDTH 400 0
DWIDTH 4 0
BBX 2 2 1 -3
BITMAP
40
C0
ENDCHAR
STARTCHAR uni00B9
ENCODING -1
SWIDTH 400 0
DWIDTH 4 0
BBX 1 3 0 3
BITMAP
80
80
80
ENDCHAR
STARTCHAR ordmasculine
ENCODING -1
SWIDTH 400 0
DWIDTH 4 0
BBX 3 3 1 3
BITMAP
40
A0
40
ENDCHAR
STARTCHAR guillemotright
ENCODING -1
SWIDTH 400 0
DWIDTH 4 0
BBX 5 5 0 0
BITMAP
20
90
48
90
20
ENDCHAR
STARTCHAR onequarter
ENCODING -1
SWIDTH 400 0
DWIDTH 4 0
BBX 4 7 0 -1
BITMAP
90
A0
40
80
50
70
10
ENDCHAR
STARTCHAR onehalf
ENCODING -1
SWIDTH 400 0
DWIDTH 4 0
BBX 4 7 0 -1
BITMAP
90
A0
40
A0
10
20
70
ENDCHAR
STARTCHAR threequarters
ENCODING -1
SWIDTH 400 0
DWIDTH 4 0
BBX 4 8 0 -2
BITMAP
C0
50
E0
40
80
50
70
10
ENDCHAR
STARTCHAR questiondown
ENCODING -1
SWIDTH 400 0
DWIDTH 4 0
BBX 3 6 1 0
BITMAP
40
00
40
C0
80
E0
ENDCHAR
STARTCHAR Euro
ENCODING -1
SWIDTH 400 0
DWIDTH 4 0
BBX 4 6 0 -1
BITMAP
30
40
F0
F0
40
30
ENDCHAR
STARTCHAR carriagereturn
ENCODING -1
SWIDTH 400 0
DWIDTH 4 0
BBX 5 8 0 -2
BITMAP
08
08
08
28
48
F8
40
20
ENDCHAR
STARTCHAR SF100000
ENCODING -1
SWIDTH 400 0
DWIDTH 4 0
BBX 5 1 0 1
BITMAP
F8
ENDCHAR
STARTCHAR uni2501
ENCODING -1
SWIDTH 400 0
DWIDTH 4 0
BBX 5 2 0 1
BITMAP
F8
F8
ENDCHAR
STARTCHAR SF110000
ENCODING -1
SWIDTH 400 0
DWIDTH 4 0
BBX 1 10 2 -3
BITMAP
80
80
80
80
80
80
80
80
80
80
ENDCHAR
STARTCHAR uni2503
ENCODING -1
SWIDTH 400 0
DWIDTH 4 0
BBX 2 10 1 -3
BITMAP
C0
C0
C0
C0
C0
C0
C0
C0
C0
C0
ENDCHAR
STARTCHAR uni2504
ENCODING -1
SWIDTH 400 0
DWIDTH 4 0
BBX 5 1 0 1
BITMAP
A8
ENDCHAR
STARTCHAR uni2505
ENCODING -1
SWIDTH 400 0
DWIDTH 4 0
BBX 5 2 0 1
BITMAP
A8
A8
ENDCHAR
STARTCHAR uni2506
ENCODING -1
SWIDTH 400 0
DWIDTH 4 0
BBX 1 9 2 -2
BITMAP
80
80
00
80
80
80
00
80
80
ENDCHAR
STARTCHAR uni2507
ENCODING -1
SWIDTH 400 0
DWIDTH 4 0
BBX 2 9 1 -2
BITMAP
C0
C0
00
C0
C0
C0
00
C0
C0
ENDCHAR
STARTCHAR uni2508
ENCODING -1
SWIDTH 400 0
DWIDTH 4 0
BBX 3 1 1 1
BITMAP
A0
ENDCHAR
STARTCHAR uni2509
ENCODING -1
SWIDTH 400 0
DWIDTH 4 0
BBX 3 2 1 1
BITMAP
A0
A0
ENDCHAR
STARTCHAR uni250A
ENCODING -1
SWIDTH 400 0
DWIDTH 4 0
BBX 1 9 2 -2
BITMAP
80
00
80
00
80
00
80
00
80
ENDCHAR
STARTCHAR uni250B
ENCODING -1
SWIDTH 400 0
DWIDTH 4 0
BBX 2 9 1 -2
BITMAP
C0
00
C0
00
C0
00
C0
00
C0
ENDCHAR
STARTCHAR SF010000
ENCODING -1
SWIDTH 400 0
DWIDTH 4 0
BBX 3 5 2 -3
BITMAP
E0
80
80
80
80
ENDCHAR
STARTCHAR uni250D
ENCODING -1
SWIDTH 400 0
DWIDTH 4 0
BBX 3 6 2 -3
BITMAP
E0
E0
80
80
80
80
ENDCHAR
STARTCHAR uni250E
ENCODING -1
SWIDTH 400 0
DWIDTH 4 0
BBX 4 5 1 -3
BITMAP
F0
C0
C0
C0
C0
ENDCHAR
STARTCHAR uni250F
ENCODING -1
SWIDTH 400 0
DWIDTH 4 0
BBX 4 6 1 -3
BITMAP
F0
F0
C0
C0
C0
C0
ENDCHAR
STARTCHAR SF030000
ENCODING -1
SWIDTH 400 0
DWIDTH 4 0
BBX 3 5 0 -3
BITMAP
E0
20
20
20
20
ENDCHAR
STARTCHAR uni2511
ENCODING -1
SWIDTH 400 0
DWIDTH 4 0
BBX 3 6 0 -3
BITMAP
E0
E0
20
20
20
20
ENDCHAR
STARTCHAR uni2512
ENCODING -1
SWIDTH 400 0
DWIDTH 4 0
BBX 3 5 0 -3
BITMAP
E0
60
60
60
60
ENDCHAR
STARTCHAR uni2513
ENCODING -1
SWIDTH 400 0
DWIDTH 4 0
BBX 3 6 0 -3
BITMAP
E0
E0
60
60
60
60
ENDCHAR
STARTCHAR SF020000
ENCODING -1
SWIDTH 400 0
DWIDTH 4 0
BBX 3 6 2 1
BITMAP
80
80
80
80
80
E0
ENDCHAR
STARTCHAR uni2515
ENCODING -1
SWIDTH 400 0
DWIDTH 4 0
BBX 3 6 2 1
BITMAP
80
80
80
80
E0
E0
ENDCHAR
STARTCHAR uni2516
ENCODING -1
SWIDTH 400 0
DWIDTH 4 0
BBX 4 6 1 1
BITMAP
C0
C0
C0
C0
C0
F0
ENDCHAR
STARTCHAR uni2517
ENCODING -1
SWIDTH 400 0
DWIDTH 4 0
BBX 4 6 1 1
BITMAP
C0
C0
C0
C0
F0
F0
ENDCHAR
STARTCHAR SF040000
ENCODING -1
SWIDTH 400 0
DWIDTH 4 0
BBX 3 6 0 1
BITMAP
20
20
20
20
20
E0
ENDCHAR
STARTCHAR uni2519
ENCODING -1
SWIDTH 400 0
DWIDTH 4 0
BBX 3 6 0 1
BITMAP
20
20
20
20
E0
E0
ENDCHAR
STARTCHAR uni251A
ENCODING -1
SWIDTH 400 0
DWIDTH 4 0
BBX 3 6 0 1
BITMAP
60
60
60
60
60
E0
ENDCHAR
STARTCHAR uni251B
ENCODING -1
SWIDTH 400 0
DWIDTH 4 0
BBX 3 6 0 1
BITMAP
60
60
60
60
E0
E0
ENDCHAR
STARTCHAR SF080000
ENCODING -1
SWIDTH 400 0
DWIDTH 4 0
BBX 3 10 2 -3
BITMAP
80
80
80
80
80
E0
80
80
80
80
ENDCHAR
STARTCHAR uni251D
ENCODING -1
SWIDTH 400 0
DWIDTH 4 0
BBX 3 10 2 -3
BITMAP
80
80
80
80
E0
E0
80
80
80
80
ENDCHAR
STARTCHAR uni251E
ENCODING -1
SWIDTH 400 0
DWIDTH 4 0
BBX 4 10 1 -3
BITMAP
C0
C0
C0
C0
C0
F0
40
40
40
40
ENDCHAR
STARTCHAR uni251F
ENCODING -1
SWIDTH 400 0
DWIDTH 4 0
BBX 4 10 1 -3
BITMAP
40
40
40
40
40
F0
C0
C0
C0
C0
ENDCHAR
STARTCHAR uni2520
ENCODING -1
SWIDTH 400 0
DWIDTH 4 0
BBX 4 10 1 -3
BITMAP
C0
C0
C0
C0
C0
F0
C0
C0
C0
C0
ENDCHAR
STARTCHAR uni2521
ENCODING -1
SWIDTH 400 0
DWIDTH 4 0
BBX 4 10 1 -3
BITMAP
C0
C0
C0
C0
F0
F0
40
40
40
40
ENDCHAR
STARTCHAR uni2522
ENCODING -1
SWIDTH 400 0
DWIDTH 4 0
BBX 4 10 1 -3
BITMAP
40
40
40
40
F0
F0
C0
C0
C0
C0
ENDCHAR
STARTCHAR uni2523
ENCODING -1
SWIDTH 400 0
DWIDTH 4 0
BBX 4 10 1 -3
BITMAP
C0
C0
C0
C0
F0
F0
C0
C0
C0
C0
ENDCHAR
STARTCHAR SF090000
ENCODING -1
SWIDTH 400 0
DWIDTH 4 0
BBX 3 10 0 -3
BITMAP
20
20
20
20
20
E0
20
20
20
20
ENDCHAR
STARTCHAR uni2525
ENCODING -1
SWIDTH 400 0
DWIDTH 4 0
BBX 3 10 0 -3
BITMAP
20
20
20
20
E0
E0
20
20
20
20
ENDCHAR
STARTCHAR uni2526
ENCODING -1
SWIDTH 400 0
DWIDTH 4 0
BBX 3 10 0 -3
BITMAP
60
60
60
60
60
E0
20
20
20
20
ENDCHAR
STARTCHAR uni2527
ENCODING -1
SWIDTH 400 0
DWIDTH 4 0
BBX 3 10 0 -3
BITMAP
20
20
20
20
20
E0
60
60
60
60
ENDCHAR
STARTCHAR uni2528
ENCODING -1
SWIDTH 400 0
DWIDTH 4 0
BBX 3 10 0 -3
BITMAP
60
60
60
60
60
E0
60
60
60
60
ENDCHAR
STARTCHAR uni2529
ENCODING -1
SWIDTH 400 0
DWIDTH 4 0
BBX 3 10 0 -3
BITMAP
60
60
60
60
E0
E0
20
20
20
20
ENDCHAR
STARTCHAR uni252A
ENCODING -1
SWIDTH 400 0
DWIDTH 4 0
BBX 3 10 0 -3
BITMAP
20
20
20
20
E0
E0
60
60
60
60
ENDCHAR
STARTCHAR uni252B
ENCODING -1
SWIDTH 400 0
DWIDTH 4 0
BBX 3 10 0 -3
BITMAP
60
60
60
60
E0
E0
60
60
60
60
ENDCHAR
STARTCHAR SF060000
ENCODING -1
SWIDTH 400 0
DWIDTH 4 0
BBX 5 5 0 -3
BITMAP
F8
20
20
20
20
ENDCHAR
STARTCHAR uni252D
ENCODING -1
SWIDTH 400 0
DWIDTH 4 0
BBX 5 6 0 -3
BITMAP
E0
F8
20
20
20
20
ENDCHAR
STARTCHAR uni252E
ENCODING -1
SWIDTH 400 0
DWIDTH 4 0
BBX 5 6 0 -3
BITMAP
38
F8
20
20
20
20
ENDCHAR
STARTCHAR uni252F
ENCODING -1
SWIDTH 400 0
DWIDTH 4 0
BBX 5 6 0 -3
BITMAP
F8
F8
20
20
20
20
ENDCHAR
STARTCHAR uni2530
ENCODING -1
SWIDTH 400 0
DWIDTH 4 0
BBX 5 5 0 -3
BITMAP
F8
60
60
60
60
ENDCHAR
STARTCHAR uni2531
ENCODING -1
SWIDTH 400 0
DWIDTH 4 0
BBX 5 6 0 -3
BITMAP
E0
F8
60
60
60
60
ENDCHAR
STARTCHAR uni2532
ENCODING -1
SWIDTH 400 0
DWIDTH 4 0
BBX 5 6 0 -3
BITMAP
78
F8
60
60
60
60
ENDCHAR
STARTCHAR uni2533
ENCODING -1
SWIDTH 400 0
DWIDTH 4 0
BBX 5 6 0 -3
BITMAP
F8
F8
60
60
60
60
ENDCHAR
STARTCHAR SF070000
ENCODING -1
SWIDTH 400 0
DWIDTH 4 0
BBX 5 6 0 1
BITMAP
20
20
20
20
20
F8
ENDCHAR
STARTCHAR uni2535
ENCODING -1
SWIDTH 400 0
DWIDTH 4 0
BBX 5 6 0 1
BITMAP
20
20
20
20
E0
F8
ENDCHAR
STARTCHAR uni2536
ENCODING -1
SWIDTH 400 0
DWIDTH 4 0
BBX 5 6 0 1
BITMAP
20
20
20
20
38
F8
ENDCHAR
STARTCHAR uni2537
ENCODING -1
SWIDTH 400 0
DWIDTH 4 0
BBX 5 6 0 1
BITMAP
20
20
20
20
F8
F8
ENDCHAR
STARTCHAR uni2538
ENCODING -1
SWIDTH 400 0
DWIDTH 4 0
BBX 5 6 0 1
BITMAP
60
60
60
60
60
F8
ENDCHAR
STARTCHAR uni2539
ENCODING -1
SWIDTH 400 0
DWIDTH 4 0
BBX 5 6 0 1
BITMAP
60
60
60
60
E0
F8
ENDCHAR
STARTCHAR uni253A
ENCODING -1
SWIDTH 400 0
DWIDTH 4 0
BBX 5 6 0 1
BITMAP
60
60
60
60
78
F8
ENDCHAR
STARTCHAR uni253B
ENCODING -1
SWIDTH 400 0
DWIDTH 4 0
BBX 5 6 0 1
BITMAP
60
60
60
60
F8
F8
ENDCHAR
STARTCHAR SF050000
ENCODING -1
SWIDTH 400 0
DWIDTH 4 0
BBX 5 10 0 -3
BITMAP
20
20
20
20
20
F8
20
20
20
20
ENDCHAR
STARTCHAR uni253D
ENCODING -1
SWIDTH 400 0
DWIDTH 4 0
BBX 5 10 0 -3
BITMAP
20
20
20
20
E0
F8
20
20
20
20
ENDCHAR
STARTCHAR uni253E
ENCODING -1
SWIDTH 400 0
DWIDTH 4 0
BBX 5 10 0 -3
BITMAP
20
20
20
20
38
F8
20
20
20
20
ENDCHAR
STARTCHAR uni253F
ENCODING -1
SWIDTH 400 0
DWIDTH 4 0
BBX 5 10 0 -3
BITMAP
20
20
20
20
F8
F8
20
20
20
20
ENDCHAR
STARTCHAR uni2540
ENCODING -1
SWIDTH 400 0
DWIDTH 4 0
BBX 5 10 0 -3
BITMAP
60
60
60
60
60
F8
20
20
20
20
ENDCHAR
STARTCHAR uni2541
ENCODING -1
SWIDTH 400 0
DWIDTH 4 0
BBX 5 10 0 -3
BITMAP
20
20
20
20
20
F8
60
60
60
60
ENDCHAR
STARTCHAR uni2542
ENCODING -1
SWIDTH 400 0
DWIDTH 4 0
BBX 5 9 0 -2
BITMAP
60
60
60
60
60
F8
60
60
60
ENDCHAR
STARTCHAR uni2543
ENCODING -1
SWIDTH 400 0
DWIDTH 4 0
BBX 5 10 0 -3
BITMAP
60
60
60
60
E0
F8
20
20
20
20
ENDCHAR
STARTCHAR uni2544
ENCODING -1
SWIDTH 400 0
DWIDTH 4 0
BBX 5 10 0 -3
BITMAP
60
60
60
60
78
F8
20
20
20
20
ENDCHAR
STARTCHAR uni2545
ENCODING -1
SWIDTH 400 0
DWIDTH 4 0
BBX 5 10 0 -3
BITMAP
20
20
20
20
E0
F8
60
60
60
60
ENDCHAR
STARTCHAR uni2546
ENCODING -1
SWIDTH 400 0
DWIDTH 4 0
BBX 5 10 0 -3
BITMAP
20
20
20
20
78
F8
60
60
60
60
ENDCHAR
STARTCHAR uni2547
ENCODING -1
SWIDTH 400 0
DWIDTH 4 0
BBX 5 10 0 -3
BITMAP
60
60
60
60
F8
F8
20
20
20
20
ENDCHAR
STARTCHAR uni2548
ENCODING -1
SWIDTH 400 0
DWIDTH 4 0
BBX 5 10 0 -3
BITMAP
20
20
20
20
F8
F8
60
60
60
60
ENDCHAR
STARTCHAR uni2549
ENCODING -1
SWIDTH 400 0
DWIDTH 4 0
BBX 5 10 0 -3
BITMAP
60
60
60
60
E0
F8
60
60
60
60
ENDCHAR
STARTCHAR uni254A
ENCODING -1
SWIDTH 400 0
DWIDTH 4 0
BBX 5 10 0 -3
BITMAP
60
60
60
60
78
F8
60
60
60
60
ENDCHAR
STARTCHAR uni254B
ENCODING -1
SWIDTH 400 0
DWIDTH 4 0
BBX 5 10 0 -3
BITMAP
60
60
60
60
F8
F8
60
60
60
60
ENDCHAR
STARTCHAR uni254C
ENCODING -1
SWIDTH 400 0
DWIDTH 4 0
BBX 4 1 1 1
BITMAP
B0
ENDCHAR
STARTCHAR uni254D
ENCODING -1
SWIDTH 400 0
DWIDTH 4 0
BBX 4 2 1 1
BITMAP
B0
B0
ENDCHAR
STARTCHAR uni254E
ENCODING -1
SWIDTH 400 0
DWIDTH 4 0
BBX 1 8 2 -2
BITMAP
80
80
80
00
00
80
80
80
ENDCHAR
STARTCHAR uni254F
ENCODING -1
SWIDTH 400 0
DWIDTH 4 0
BBX 2 8 1 -2
BITMAP
C0
C0
C0
00
00
C0
C0
C0
ENDCHAR
STARTCHAR SF430000
ENCODING -1
SWIDTH 400 0
DWIDTH 4 0
BBX 5 4 0 0
BITMAP
F8
00
00
F8
ENDCHAR
STARTCHAR SF240000
ENCODING -1
SWIDTH 400 0
DWIDTH 4 0
BBX 3 10 1 -3
BITMAP
A0
A0
A0
A0
A0
A0
A0
A0
A0
A0
ENDCHAR
STARTCHAR SF510000
ENCODING -1
SWIDTH 400 0
DWIDTH 4 0
BBX 3 7 2 -3
BITMAP
E0
80
80
E0
80
80
80
ENDCHAR
STARTCHAR SF520000
ENCODING -1
SWIDTH 400 0
DWIDTH 4 0
BBX 4 5 1 -3
BITMAP
F0
A0
A0
A0
A0
ENDCHAR
STARTCHAR SF390000
ENCODING -1
SWIDTH 400 0
DWIDTH 4 0
BBX 4 7 1 -3
BITMAP
F0
80
80
B0
A0
A0
A0
ENDCHAR
STARTCHAR SF220000
ENCODING -1
SWIDTH 400 0
DWIDTH 4 0
BBX 3 7 0 -3
BITMAP
E0
20
20
E0
20
20
20
ENDCHAR
STARTCHAR SF210000
ENCODING -1
SWIDTH 400 0
DWIDTH 4 0
BBX 4 5 0 -3
BITMAP
F0
50
50
50
50
ENDCHAR
STARTCHAR SF250000
ENCODING -1
SWIDTH 400 0
DWIDTH 4 0
BBX 4 7 0 -3
BITMAP
F0
10
10
D0
50
50
50
ENDCHAR
STARTCHAR SF500000
ENCODING -1
SWIDTH 400 0
DWIDTH 4 0
BBX 3 7 2 0
BITMAP
80
80
80
E0
80
80
E0
ENDCHAR
STARTCHAR SF490000
ENCODING -1
SWIDTH 400 0
DWIDTH 4 0
BBX 4 6 1 1
BITMAP
A0
A0
A0
A0
A0
F0
ENDCHAR
STARTCHAR SF380000
ENCODING -1
SWIDTH 400 0
DWIDTH 4 0
BBX 4 7 1 0
BITMAP
A0
A0
A0
B0
80
80
F0
ENDCHAR
STARTCHAR SF280000
ENCODING -1
SWIDTH 400 0
DWIDTH 4 0
BBX 3 7 0 0
BITMAP
20
20
20
E0
20
20
E0
ENDCHAR
STARTCHAR SF270000
ENCODING -1
SWIDTH 400 0
DWIDTH 4 0
BBX 4 6 0 1
BITMAP
50
50
50
50
50
F0
ENDCHAR
STARTCHAR SF260000
ENCODING -1
SWIDTH 400 0
DWIDTH 4 0
BBX 4 7 0 0
BITMAP
50
50
50
D0
10
10
F0
ENDCHAR
STARTCHAR SF360000
ENCODING -1
SWIDTH 400 0
DWIDTH 4 0
BBX 3 10 2 -3
BITMAP
80
80
80
E0
80
80
E0
80
80
80
ENDCHAR
STARTCHAR SF370000
ENCODING -1
SWIDTH 400 0
DWIDTH 4 0
BBX 4 10 1 -3
BITMAP
A0
A0
A0
A0
A0
B0
A0
A0
A0
A0
ENDCHAR
STARTCHAR SF420000
ENCODING -1
SWIDTH 400 0
DWIDTH 4 0
BBX 4 10 1 -3
BITMAP
A0
A0
A0
B0
80
80
B0
A0
A0
A0
ENDCHAR
STARTCHAR SF190000
ENCODING -1
SWIDTH 400 0
DWIDTH 4 0
BBX 3 10 0 -3
BITMAP
20
20
20
E0
20
20
E0
20
20
20
ENDCHAR
STARTCHAR SF200000
ENCODING -1
SWIDTH 400 0
DWIDTH 4 0
BBX 4 10 0 -3
BITMAP
50
50
50
50
50
D0
50
50
50
50
ENDCHAR
STARTCHAR SF230000
ENCODING -1
SWIDTH 400 0
DWIDTH 4 0
BBX 4 10 0 -3
BITMAP
50
50
50
D0
10
10
D0
50
50
50
ENDCHAR
STARTCHAR SF470000
ENCODING -1
SWIDTH 400 0
DWIDTH 4 0
BBX 5 7 0 -3
BITMAP
F8
00
00
F8
20
20
20
ENDCHAR
STARTCHAR SF480000
ENCODING -1
SWIDTH 400 0
DWIDTH 4 0
BBX 5 5 0 -3
BITMAP
F8
50
50
50
50
ENDCHAR
STARTCHAR SF410000
ENCODING -1
SWIDTH 400 0
DWIDTH 4 0
BBX 5 7 0 -3
BITMAP
F8
00
00
D8
50
50
50
ENDCHAR
STARTCHAR SF450000
ENCODING -1
SWIDTH 400 0
DWIDTH 4 0
BBX 5 7 0 0
BITMAP
20
20
20
F8
00
00
F8
ENDCHAR
STARTCHAR SF460000
ENCODING -1
SWIDTH 400 0
DWIDTH 4 0
BBX 5 6 0 1
BITMAP
50
50
50
50
50
F8
ENDCHAR
STARTCHAR SF400000
ENCODING -1
SWIDTH 400 0
DWIDTH 4 0
BBX 5 7 0 0
BITMAP
50
50
50
D8
00
00
F8
ENDCHAR
STARTCHAR SF540000
ENCODING -1
SWIDTH 400 0
DWIDTH 4 0
BBX 5 10 0 -3
BITMAP
20
20
20
F8
20
20
F8
20
20
20
ENDCHAR
STARTCHAR SF530000
ENCODING -1
SWIDTH 400 0
DWIDTH 4 0
BBX 5 10 0 -3
BITMAP
50
50
50
50
50
F8
50
50
50
50
ENDCHAR
STARTCHAR SF440000
ENCODING -1
SWIDTH 400 0
DWIDTH 4 0
BBX 5 10 0 -3
BITMAP
50
50
50
D8
00
00
D8
50
50
50
ENDCHAR
STARTCHAR uni256D
ENCODING -1
SWIDTH 400 0
DWIDTH 4 0
BBX 3 5 2 -3
BITMAP
60
C0
80
80
80
ENDCHAR
STARTCHAR uni256E
ENCODING -1
SWIDTH 400 0
DWIDTH 4 0
BBX 3 5 0 -3
BITMAP
C0
60
20
20
20
ENDCHAR
STARTCHAR uni256F
ENCODING -1
SWIDTH 400 0
DWIDTH 4 0
BBX 3 6 0 1
BITMAP
20
20
20
20
60
C0
ENDCHAR
STARTCHAR uni2570
ENCODING -1
SWIDTH 400 0
DWIDTH 4 0
BBX 3 6 2 1
BITMAP
80
80
80
80
C0
60
ENDCHAR
STARTCHAR uni2571
ENCODING -1
SWIDTH 400 0
DWIDTH 4 0
BBX 5 10 0 -3
BITMAP
08
08
10
10
20
20
40
40
80
80
ENDCHAR
STARTCHAR uni2572
ENCODING -1
SWIDTH 400 0
DWIDTH 4 0
BBX 5 10 0 -3
BITMAP
80
80
40
40
20
20
10
10
08
08
ENDCHAR
STARTCHAR uni2573
ENCODING -1
SWIDTH 400 0
DWIDTH 4 0
BBX 5 10 0 -3
BITMAP
88
88
50
50
20
20
50
50
88
88
ENDCHAR
STARTCHAR uni2574
ENCODING -1
SWIDTH 400 0
DWIDTH 4 0
BBX 3 1 0 1
BITMAP
E0
ENDCHAR
STARTCHAR uni2575
ENCODING -1
SWIDTH 400 0
DWIDTH 4 0
BBX 1 6 2 1
BITMAP
80
80
80
80
80
80
ENDCHAR
STARTCHAR uni2576
ENCODING -1
SWIDTH 400 0
DWIDTH 4 0
BBX 3 1 2 1
BITMAP
E0
ENDCHAR
STARTCHAR uni2577
ENCODING -1
SWIDTH 400 0
DWIDTH 4 0
BBX 1 5 2 -3
BITMAP
80
80
80
80
80
ENDCHAR
STARTCHAR uni2578
ENCODING -1
SWIDTH 400 0
DWIDTH 4 0
BBX 3 2 0 1
BITMAP
E0
E0
ENDCHAR
STARTCHAR uni2579
ENCODING -1
SWIDTH 400 0
DWIDTH 4 0
BBX 2 6 1 1
BITMAP
C0
C0
C0
C0
C0
C0
ENDCHAR
STARTCHAR uni257A
ENCODING -1
SWIDTH 400 0
DWIDTH 4 0
BBX 3 2 2 1
BITMAP
E0
E0
ENDCHAR
STARTCHAR uni257B
ENCODING -1
SWIDTH 400 0
DWIDTH 4 0
BBX 2 5 1 -3
BITMAP
C0
C0
C0
C0
C0
ENDCHAR
STARTCHAR uni257C
ENCODING -1
SWIDTH 400 0
DWIDTH 4 0
BBX 5 2 0 1
BITMAP
38
F8
ENDCHAR
STARTCHAR uni257D
ENCODING -1
SWIDTH 400 0
DWIDTH 4 0
BBX 2 10 1 -3
BITMAP
40
40
40
40
40
C0
C0
C0
C0
C0
ENDCHAR
STARTCHAR uni257E
ENCODING -1
SWIDTH 400 0
DWIDTH 4 0
BBX 5 2 0 1
BITMAP
E0
F8
ENDCHAR
STARTCHAR uni257F
ENCODING -1
SWIDTH 400 0
DWIDTH 4 0
BBX 2 10 1 -3
BITMAP
C0
C0
C0
C0
C0
C0
40
40
40
40
ENDCHAR
STARTCHAR upblock
ENCODING -1
SWIDTH 400 0
DWIDTH 4 0
BBX 5 5 0 2
BITMAP
F8
F8
F8
F8
F8
ENDCHAR
STARTCHAR uni2581
ENCODING -1
SWIDTH 400 0
DWIDTH 4 0
BBX 5 1 0 -2
BITMAP
F8
ENDCHAR
STARTCHAR uni2582
ENCODING -1
SWIDTH 400 0
DWIDTH 4 0
BBX 5 2 0 -2
BITMAP
F8
F8
ENDCHAR
STARTCHAR uni2583
ENCODING -1
SWIDTH 400 0
DWIDTH 4 0
BBX 5 3 0 -2
BITMAP
F8
F8
F8
ENDCHAR
STARTCHAR dnblock
ENCODING -1
SWIDTH 400 0
DWIDTH 4 0
BBX 5 4 0 -2
BITMAP
F8
F8
F8
F8
ENDCHAR
STARTCHAR uni2585
ENCODING -1
SWIDTH 400 0
DWIDTH 4 0
BBX 5 5 0 -2
BITMAP
F8
F8
F8
F8
F8
ENDCHAR
STARTCHAR uni2586
ENCODING -1
SWIDTH 400 0
DWIDTH 4 0
BBX 5 6 0 -2
BITMAP
F8
F8
F8
F8
F8
F8
ENDCHAR
STARTCHAR uni2587
ENCODING -1
SWIDTH 400 0
DWIDTH 4 0
BBX 5 7 0 -2
BITMAP
F8
F8
F8
F8
F8
F8
F8
ENDCHAR
STARTCHAR block
ENCODING -1
SWIDTH 400 0
DWIDTH 4 0
BBX 5 8 0 -2
BITMAP
F8
F8
F8
F8
F8
F8
F8
F8
ENDCHAR
STARTCHAR uni2589
ENCODING -1
SWIDTH 400 0
DWIDTH 4 0
BBX 5 8 0 -2
BITMAP
F0
F0
F0
F0
F0
F8
F8
F8
ENDCHAR
STARTCHAR uni258A
ENCODING -1
SWIDTH 400 0
DWIDTH 4 0
BBX 4 8 0 -2
BITMAP
E0
E0
F0
F0
F0
F0
F0
F0
ENDCHAR
STARTCHAR uni258B
ENCODING -1
SWIDTH 400 0
DWIDTH 4 0
BBX 4 8 0 -2
BITMAP
E0
E0
E0
E0
E0
E0
E0
F0
ENDCHAR
STARTCHAR lfblock
ENCODING -1
SWIDTH 400 0
DWIDTH 4 0
BBX 3 8 0 -2
BITMAP
C0
C0
C0
C0
E0
E0
E0
E0
ENDCHAR
STARTCHAR uni258D
ENCODING -1
SWIDTH 400 0
DWIDTH 4 0
BBX 2 8 0 -2
BITMAP
80
C0
C0
C0
C0
C0
C0
C0
ENDCHAR
STARTCHAR uni258E
ENCODING -1
SWIDTH 400 0
DWIDTH 4 0
BBX 2 8 0 -2
BITMAP
80
80
80
80
80
80
C0
C0
ENDCHAR
STARTCHAR uni258F
ENCODING -1
SWIDTH 400 0
DWIDTH 4 0
BBX 1 5 0 -2
BITMAP
80
80
80
80
80
ENDCHAR
STARTCHAR rtblock
ENCODING -1
SWIDTH 400 0
DWIDTH 4 0
BBX 3 8 2 -2
BITMAP
E0
E0
E0
E0
60
60
60
60
ENDCHAR
STARTCHAR ltshade
ENCODING -1
SWIDTH 400 0
DWIDTH 4 0
BBX 5 10 0 -3
BITMAP
40
08
20
80
10
40
08
20
80
10
ENDCHAR
STARTCHAR shade
ENCODING -1
SWIDTH 400 0
DWIDTH 4 0
BBX 5 10 0 -3
BITMAP
C0
18
60
88
30
C0
18
60
88
30
ENDCHAR
STARTCHAR dkshade
ENCODING -1
SWIDTH 400 0
DWIDTH 4 0
BBX 5 10 0 -3
BITMAP
D8
78
E8
B8
F0
D8
78
E8
B8
F0
ENDCHAR
STARTCHAR uni2594
ENCODING -1
SWIDTH 400 0
DWIDTH 4 0
BBX 5 1 0 5
BITMAP
F8
ENDCHAR
STARTCHAR uni2595
ENCODING -1
SWIDTH 400 0
DWIDTH 4 0
BBX 1 5 4 1
BITMAP
80
80
80
80
80
ENDCHAR
STARTCHAR uni2596
ENCODING -1
SWIDTH 400 0
DWIDTH 4 0
BBX 3 5 0 -3
BITMAP
E0
E0
E0
E0
E0
ENDCHAR
STARTCHAR uni2597
ENCODING -1
SWIDTH 400 0
DWIDTH 4 0
BBX 3 5 2 -3
BITMAP
E0
E0
E0
E0
E0
ENDCHAR
STARTCHAR uni2598
ENCODING -1
SWIDTH 400 0
DWIDTH 4 0
BBX 3 5 0 2
BITMAP
E0
E0
E0
E0
E0
ENDCHAR
STARTCHAR uni2599
ENCODING -1
SWIDTH 400 0
DWIDTH 4 0
BBX 5 10 0 -3
BITMAP
E0
E0
E0
E0
E0
F8
F8
F8
F8
F8
ENDCHAR
STARTCHAR uni259A
ENCODING -1
SWIDTH 400 0
DWIDTH 4 0
BBX 5 10 0 -3
BITMAP
E0
E0
E0
E0
E0
38
38
38
38
38
ENDCHAR
STARTCHAR uni259B
ENCODING -1
SWIDTH 400 0
DWIDTH 4 0
BBX 5 10 0 -3
BITMAP
F8
F8
F8
F8
F8
E0
E0
E0
E0
E0
ENDCHAR
STARTCHAR uni259C
ENCODING -1
SWIDTH 400 0
DWIDTH 4 0
BBX 5 10 0 -3
BITMAP
F8
F8
F8
F8
F8
38
38
38
38
38
ENDCHAR
STARTCHAR uni259D
ENCODING -1
SWIDTH 400 0
DWIDTH 4 0
BBX 3 5 2 2
BITMAP
E0
E0
E0
E0
E0
ENDCHAR
STARTCHAR uni259E
ENCODING -1
SWIDTH 400 0
DWIDTH 4 0
BBX 5 10 0 -3
BITMAP
38
38
38
38
38
E0
E0
E0
E0
E0
ENDCHAR
STARTCHAR uni259F
ENCODING -1
SWIDTH 400 0
DWIDTH 4 0
BBX 5 10 0 -3
BITMAP
E0
E0
E0
E0
E0
F8
F8
F8
F8
F8
ENDCHAR
STARTCHAR filledbox
ENCODING -1
SWIDTH 400 0
DWIDTH 4 0
BBX 4 4 0 0
BITMAP
F0
F0
F0
F0
ENDCHAR
STARTCHAR H22073
ENCODING -1
SWIDTH 400 0
DWIDTH 4 0
BBX 4 4 0 0
BITMAP
F0
90
90
F0
ENDCHAR
STARTCHAR uni25A2
ENCODING -1
SWIDTH 400 0
DWIDTH 4 0
BBX 4 4 0 0
BITMAP
60
90
90
60
ENDCHAR
STARTCHAR uni3000
ENCODING -1
SWIDTH 400 0
DWIDTH 4 0
BBX 1 1 0 0
BITMAP
00
ENDCHAR
ENDFONT
